<svg xmlns="http://www.w3.org/2000/svg" viewBox="0 0 83.28 31.72"><defs><style>.cls-1{fill:#00429d;}.cls-2{fill:#00347b;}.cls-3{fill:#fff4f4;}.cls-3,.cls-4{fill-rule:evenodd;}.cls-4{fill:#f6efea;}.cls-5{fill:#4bb9ec;}</style></defs><g id="Capa_2" data-name="Capa 2"><g id="CONTENIDO"><path class="cls-1" d="M16.43,23.18h-14A2.44,2.44,0,0,1,0,20.74V11A2.44,2.44,0,0,1,2.44,8.54h14A2.44,2.44,0,0,1,18.87,11v9.76a2.44,2.44,0,0,1-2.44,2.44Z"/><path class="cls-2" d="M80.84,23.18h-14a2.44,2.44,0,0,1-2.44-2.44V11a2.44,2.44,0,0,1,2.44-2.44h14A2.44,2.44,0,0,1,83.28,11v9.76a2.44,2.44,0,0,1-2.44,2.44Z"/><path class="cls-3" d="M16.51,2.44H66.76a6.47,6.47,0,0,1,5.1,2.37,6.58,6.58,0,0,1,1.48,5.41l-2,13.5a6.56,6.56,0,0,1-6.57,5.56H52.37a5.32,5.32,0,0,1-5.24-4.17,5.49,5.49,0,0,0-5.38-4.29h-.22a5.51,5.51,0,0,0-5.39,4.29,5.31,5.31,0,0,1-5.23,4.17H18.53A6.58,6.58,0,0,1,12,23.72l-2-13.5A6.61,6.61,0,0,1,11.42,4.8a6.46,6.46,0,0,1,5.09-2.36Z"/><path class="cls-4" d="M71.86,4.81a6.47,6.47,0,0,0-5.1-2.37H41.64V20.82h.11a5.49,5.49,0,0,1,5.38,4.29,5.32,5.32,0,0,0,5.24,4.17H64.75a6.56,6.56,0,0,0,6.57-5.56l2-13.5a6.58,6.58,0,0,0-1.48-5.41Z"/><path class="cls-5" d="M64.75,31.72H52.37a7.76,7.76,0,0,1-7.61-6.07,3.06,3.06,0,0,0-3-2.39h-.22a3.06,3.06,0,0,0-3,2.39,7.76,7.76,0,0,1-7.61,6.07H18.53a9,9,0,0,1-9-7.64l-2-13.5a9,9,0,0,1,2-7.35,8.85,8.85,0,0,1,7-3.23H66.76a8.87,8.87,0,0,1,7,3.23,9,9,0,0,1,2,7.35l-2,13.51a9,9,0,0,1-9,7.63ZM41.53,18.38h.22a7.91,7.91,0,0,1,7.76,6.18,2.89,2.89,0,0,0,2.86,2.28H64.75a4.13,4.13,0,0,0,4.16-3.48l2-13.5A4.13,4.13,0,0,0,70,6.38a4,4,0,0,0-3.23-1.5H16.51a4,4,0,0,0-3.23,1.5,4.19,4.19,0,0,0-.93,3.48l2,13.5a4.13,4.13,0,0,0,4.16,3.48H30.91a2.87,2.87,0,0,0,2.85-2.28,7.93,7.93,0,0,1,7.77-6.18Z"/></g></g></svg>