<svg xmlns="http://www.w3.org/2000/svg" viewBox="0 0 127.8 127.8"><defs><style>.cls-1{fill:#5fc6ff;}.cls-2{fill:#ffc82e;}.cls-3{fill:#ffe266;}.cls-4{fill:#fff;}</style></defs><g id="Capa_2" data-name="Capa 2"><g id="CONTENIDO"><path class="cls-1" d="M127.8,63.9a63.57,63.57,0,0,1-14.35,40.34,59.69,59.69,0,0,1-4.12,4.59,63.84,63.84,0,0,1-90.86,0q-2.17-2.19-4.13-4.59A63.92,63.92,0,1,1,127.8,63.9Z"/><path class="cls-2" d="M31.82,40.76H96V16.24H31.82V40.76Zm74.59,10.43h-85v-38A7.41,7.41,0,0,1,28.8,5.81H99a7.41,7.41,0,0,1,7.41,7.41v38Z"/><path class="cls-3" d="M123.89,33.72V86a63.55,63.55,0,0,1-10.44,18.28,59.69,59.69,0,0,1-4.12,4.59,63.75,63.75,0,0,1-13.5,10.43H32a63.75,63.75,0,0,1-13.5-10.43q-2.17-2.19-4.13-4.59A63.76,63.76,0,0,1,3.91,86V33.72a7.84,7.84,0,0,1,7.83-7.83H116.06a7.84,7.84,0,0,1,7.83,7.83Z"/><path class="cls-2" d="M113.45,36.32v67.92a59.69,59.69,0,0,1-4.12,4.59H18.47q-2.17-2.19-4.13-4.59V36.32Z"/><path class="cls-4" d="M89.61,62.67H77.84a4,4,0,0,1-4-4V46.87a4,4,0,0,0-4-4H58a4,4,0,0,0-4,4V58.64a4,4,0,0,1-4,4H38.19a4,4,0,0,0-4,4V78.46a4,4,0,0,0,4,4H50a4,4,0,0,1,4,4V98.28a4,4,0,0,0,4,4H69.78a4,4,0,0,0,4-4V86.51a4,4,0,0,1,4-4H89.61a4,4,0,0,0,4-4V66.69a4,4,0,0,0-4-4Z"/></g></g></svg>