<svg xmlns="http://www.w3.org/2000/svg" viewBox="0 0 87.92 91.5"><defs><style>.cls-1{fill:#fdd7ad;}.cls-2{fill:#26b99a;}.cls-3{fill:#65ddb9;}.cls-4{fill:#46b29d;}.cls-5{fill:#fff;}.cls-6{fill:#14a085;}</style></defs><g id="Capa_2" data-name="Capa 2"><g id="CONTENIDO"><path class="cls-1" d="M53.24,91.5H32.65a3.18,3.18,0,0,1-2.84-1.79l-.76-1.59,10.45-7,12-3.79L56.08,87a3.16,3.16,0,0,1-2.84,4.53Z"/><path class="cls-1" d="M87,56,73.88,69.1a3.14,3.14,0,0,1-4.46,0l-7.94-7.94,7.37-10.52,10.2-7,8,7.94A3.16,3.16,0,0,1,87,56Z"/><path class="cls-2" d="M74.46,38.93,67.29,49.26,56.86,56.54A34.11,34.11,0,0,1,46.1,53l0-19a4.06,4.06,0,0,0-.38-1.71,3.93,3.93,0,0,0-7.46,1.69l0,16.17-13-26.88a3.9,3.9,0,0,0-2-1.89l-4.42-4.44a3.92,3.92,0,1,1,5.54-5.55L19.77,6.7a3.9,3.9,0,0,1-.51-4.93,3.83,3.83,0,0,1,.51-.62,3.91,3.91,0,0,1,5.54,0L30.86,6.7h0a3.94,3.94,0,0,1-.51-4.92v0a7.34,7.34,0,0,1,.51-.6,3.92,3.92,0,0,1,5.55,0L57.6,22.21,52.23,7A3.92,3.92,0,0,1,58.7,2.9a3.8,3.8,0,0,1,.93,1.47L68,28.27a30.24,30.24,0,0,0,6.43,10.66Z"/><path class="cls-3" d="M48.64,71.43l-10.39,7-12,3.83A34.76,34.76,0,0,1,11.31,66.65L.45,44.06a4,4,0,0,1,1.48-5.3A3.9,3.9,0,0,1,7.4,40.45l-4-8.24a3.91,3.91,0,0,1,1.19-4.82A3.18,3.18,0,0,1,5.29,27a3.94,3.94,0,0,1,5.24,1.83L8.87,25.35l0-.08L7.61,22.73h0a3.89,3.89,0,0,1,1.26-4.64,3.34,3.34,0,0,1,.65-.4,4,4,0,0,1,3-.17,3.89,3.89,0,0,1,2.23,2l3.41,7.07a3.91,3.91,0,0,1,1.18-4.84,3.34,3.34,0,0,1,.65-.4,4,4,0,0,1,3-.15,1,1,0,0,1,.27.11,3.9,3.9,0,0,1,2,1.89l13,26.88,0-16.17a3.93,3.93,0,0,1,7.46-1.69,4.06,4.06,0,0,1,.38,1.71l0,19v6.27a30.47,30.47,0,0,0,2.54,12.19Z"/><path class="cls-4" d="M28,43.41a1.45,1.45,0,0,1-.68.16,1.57,1.57,0,0,1-1.42-.9L18.16,26.58a3.91,3.91,0,0,1,1.18-4.84L28.73,41.3a1.59,1.59,0,0,1,.07,1.21,1.56,1.56,0,0,1-.81.9Z"/><path class="cls-4" d="M20.94,46.81a1.55,1.55,0,0,1-.7.15,1.58,1.58,0,0,1-1.42-.9L10.53,28.81,8.87,25.35l0-.08L7.61,22.73h0a3.89,3.89,0,0,1,1.26-4.64L21.66,44.69a1.59,1.59,0,0,1-.72,2.12Z"/><path class="cls-4" d="M13.87,50.21a1.52,1.52,0,0,1-.69.16,1.57,1.57,0,0,1-1.42-.9l-4.36-9-4-8.24a3.91,3.91,0,0,1,1.19-4.82l10,20.71a1.6,1.6,0,0,1-.73,2.11Z"/><path class="cls-5" d="M26.15,76.35a1.59,1.59,0,0,1-.91-.29A30.05,30.05,0,0,1,15.57,64.6a1.58,1.58,0,0,1,2.84-1.37,26.42,26.42,0,0,0,8.65,10.25,1.58,1.58,0,0,1-.91,2.87Z"/><path class="cls-6" d="M44.76,18.38a1.57,1.57,0,0,1-1.12.46,1.53,1.53,0,0,1-1.11-.46L30.86,6.7h0a3.94,3.94,0,0,1-.51-4.92L44.76,16.15a1.59,1.59,0,0,1,0,2.23Z"/><path class="cls-6" d="M39.22,23.92a1.58,1.58,0,0,1-2.22,0L24.38,11.31,19.77,6.7a3.9,3.9,0,0,1-.51-4.93l20,19.92a1.59,1.59,0,0,1,0,2.23Z"/><path class="cls-4" d="M53.62,74.22a3.28,3.28,0,0,1-1.84,3l-.33.16L29.05,88.12l-.59.28a3.27,3.27,0,1,1-2.84-5.9l.6-.28L48.64,71.43l.3-.14a3.28,3.28,0,0,1,4.37,1.53,3.11,3.11,0,0,1,.31,1.4Z"/><path class="cls-6" d="M80.28,41a3.19,3.19,0,0,1-1,2.31l-.27.26-18,18A3.27,3.27,0,1,1,56.4,57L74.68,38.71a3.28,3.28,0,0,1,4.64,0,3.23,3.23,0,0,1,1,2.31Z"/></g></g></svg>