<svg xmlns="http://www.w3.org/2000/svg" viewBox="0 0 91.02 91.5"><defs><style>.cls-1{fill:#a56a43;}.cls-2{fill:#26b99a;}.cls-3{fill:#14a085;}.cls-4{fill:#f5efca;}.cls-5{fill:#cb8252;}.cls-6{fill:#65ddb9;}.cls-7{fill:#46b29d;}</style></defs><g id="Capa_2" data-name="Capa 2"><g id="CONTENIDO"><path class="cls-1" d="M62.68,66.26,91,64.68v8.09a3,3,0,0,1-2.94,3h0c-3.07,0-3.07-3.16-6.15-3.16s-3.08,3.16-6.15,3.16-3.08-3.16-6.15-3.16a3.42,3.42,0,0,0-1.6.37Z"/><path class="cls-2" d="M50.27,64.41c-7.75,0-15.52-6.2-15.81-13.93L22.8,15.78c-.19-2.26-.33-4.39-.49-6.32L40.77,7.89,58.85,9.46a204.74,204.74,0,0,0-1,25.25A14.39,14.39,0,0,0,72.12,48.63h4.7c11,0,14.2,8.16,14.2,16.05v1.58H62.68Z"/><path class="cls-3" d="M59.45,3.47c-.17,1.64-.38,3.69-.6,6H22.31C22.13,7.05,22,5,21.86,3.38A3.14,3.14,0,0,1,25,0H56.31a3.16,3.16,0,0,1,3.14,3.47Z"/><path class="cls-4" d="M84.48,63.13a1.57,1.57,0,0,1-1.56-1.33c-.82-5.28-3.87-5.28-6.11-5.28a1.58,1.58,0,0,1,0-3.15c2.19,0,8,0,9.23,7.94a1.58,1.58,0,0,1-1.56,1.82Z"/><path class="cls-5" d="M69.17,78.88v9.67a2.94,2.94,0,0,1-2.94,2.94h0c-3.08,0-3.08-3.15-6.16-3.15S57,91.49,53.88,91.49s-3.08-3.15-6.15-3.15-3.08,3.15-6.15,3.15-3.08-3.15-6.16-3.15-3.07,3.15-6.13,3.15-3.08-3.15-6.16-3.15S20,91.49,17,91.49s-3.08-3.15-6.17-3.15-3.06,3.15-6.14,3.15a3.24,3.24,0,0,1-2.19-.75,3.06,3.06,0,0,1-1.14-2.43V78.88Z"/><path class="cls-6" d="M69.17,80.45V82H1.33V80.45c0-6.31,3.16-11,1.58-26.82C2,44.44,1.08,33.1.47,25.24l18.22-1.58L37,25.24a204.5,204.5,0,0,0-1,25.24A14.4,14.4,0,0,0,50.27,64.41H55a14.94,14.94,0,0,1,7.71,1.85A12.07,12.07,0,0,1,68,72.93a22.13,22.13,0,0,1,1.19,7.52Z"/><path class="cls-4" d="M62.63,78.91a1.58,1.58,0,0,1-1.55-1.34C60.26,72.3,57.2,72.3,55,72.3a1.58,1.58,0,0,1,0-3.16c2.19,0,8,0,9.23,8a1.58,1.58,0,0,1-.29,1.17,1.57,1.57,0,0,1-1,.63l-.25,0Z"/><path class="cls-7" d="M37.6,19.25c-.17,1.64-.38,3.69-.6,6H.47C.28,22.83.14,20.74,0,19.15a3.13,3.13,0,0,1,3.14-3.37H34.46a3.14,3.14,0,0,1,3.14,3.47Z"/></g></g></svg>