<svg xmlns="http://www.w3.org/2000/svg" viewBox="0 0 85.24 91.5"><defs><style>.cls-1{fill:#c79a83;}.cls-2{fill:#aaa;}.cls-3{fill:#4d4e59;}.cls-4{fill:#ff6d7a;}.cls-5{fill:#e0b7a3;}.cls-6{fill:#a07765;}.cls-7{fill:#b2b2b2;}</style></defs><g id="Capa_2" data-name="Capa 2"><g id="CONTENIDO"><path class="cls-1" d="M75.67,88.54H11.25c.37-8.57,5.71-16,14.49-17.61A3,3,0,0,0,28,69a11.64,11.64,0,0,1,3.86-5.36,21,21,0,0,1,1.31-11.37l3.05-7.39a3,3,0,0,1,3.86-1.61l19,7.85a2.93,2.93,0,0,1,1.6,3.85c-3,7.36-4,10.9-8.14,14.74h0a6.47,6.47,0,0,1,6.63,4.54A2.93,2.93,0,0,0,62.3,76.3,11.73,11.73,0,0,1,75.67,88.54Z"/><path class="cls-2" d="M59.11,51.08a2.94,2.94,0,0,1,1.6,3.85c-3,7.36-4,10.9-8.14,14.74a6.32,6.32,0,0,0-2.26.59A11.62,11.62,0,0,0,31.88,63.6a21,21,0,0,1,1.31-11.37l3.05-7.39a3,3,0,0,1,3.86-1.61l19,7.85Z"/><path class="cls-3" d="M45.16,57.68a3,3,0,0,1-1.6-3.86L59.21,15.87a3,3,0,0,1,5.46,2.25L49,56.07a3,3,0,0,1-3.86,1.61Z"/><path class="cls-4" d="M60.82,19.72A10.34,10.34,0,0,1,55.21,6.25L57,1.83A3,3,0,0,1,60.89.22L74.51,5.84a2.94,2.94,0,0,1,1.6,3.85l-1.82,4.43a10.31,10.31,0,0,1-13.47,5.6Zm.55-12.91-.7,1.7a4.41,4.41,0,1,0,8.16,3.36l.7-1.7Z"/><path class="cls-5" d="M38.16,82.26a3,3,0,0,1-2.38-3.43,8.76,8.76,0,0,1,8.62-7.19,3,3,0,1,1,0,5.9,2.86,2.86,0,0,0-2.81,2.35,2.94,2.94,0,0,1-3.43,2.37Z"/><path class="cls-5" d="M31.87,63.6c3.34-2.57,7.44,2,4.62,5.12a11.59,11.59,0,0,0-2.32,3.93,3,3,0,0,1-2.28,2,17,17,0,0,0-13.3,11.6,3.48,3.48,0,0,1-6.65-2c2-7.54,7.26-12.09,13.8-13.26A3,3,0,0,0,28,69a11.41,11.41,0,0,1,3.85-5.36Z"/><path class="cls-6" d="M82.28,91.5H3a3,3,0,0,1,0-5.91H82.28a3,3,0,1,1,0,5.91Z"/><path class="cls-7" d="M40.76,43.51a2.51,2.51,0,0,1,1.32,3.33c-3.53,8.27-4.44,10.46-4.62,14.44a11.49,11.49,0,0,0-5.58,2.32,21,21,0,0,1,1.31-11.37l3.05-7.39a3,3,0,0,1,3.86-1.61Z"/></g></g></svg>