<svg xmlns="http://www.w3.org/2000/svg" viewBox="0 0 75.63 91.5"><defs><style>.cls-1{fill:#f3f5f3;}.cls-2{fill:#e7e7e7;}.cls-3{fill:#80b6fc;}.cls-4{fill:#62a4fb;}.cls-5{fill:#5392f9;}.cls-6{fill:#c9976b;}.cls-7{fill:#d8ab83;}.cls-8{fill:#eabe71;}.cls-9{fill:#9ec8fc;}</style></defs><g id="Capa_2" data-name="Capa 2"><g id="CONTENIDO"><path class="cls-1" d="M37.72,78.08V88.75A2.75,2.75,0,0,1,35,91.5H2.75A2.75,2.75,0,0,1,0,88.75V78.08"/><path class="cls-2" d="M8.11,87.53a1.38,1.38,0,0,1-1.39-1.38V79.93a1.39,1.39,0,0,1,2.77,0v6.22a1.38,1.38,0,0,1-1.38,1.38Z"/><path class="cls-2" d="M15.28,87.53a1.38,1.38,0,0,1-1.39-1.38V79.93a1.39,1.39,0,0,1,2.77,0v6.22a1.38,1.38,0,0,1-1.38,1.38Z"/><path class="cls-2" d="M22.44,87.53a1.38,1.38,0,0,1-1.38-1.38V79.93a1.39,1.39,0,0,1,2.77,0v6.22a1.38,1.38,0,0,1-1.39,1.38Z"/><path class="cls-2" d="M29.61,87.53a1.38,1.38,0,0,1-1.38-1.38V79.93a1.39,1.39,0,0,1,2.77,0v6.22a1.38,1.38,0,0,1-1.39,1.38Z"/><path class="cls-3" d="M74.51,91.5H46.4a1.14,1.14,0,0,1-1.13-1.23l1.41-16.46a4.26,4.26,0,0,1,4.24-3.9H70a4.26,4.26,0,0,1,4.24,3.9l1.41,16.46a1.13,1.13,0,0,1-1.12,1.23Z"/><path class="cls-4" d="M51.2,91.5l.7-8.24A2.48,2.48,0,0,1,54.38,81H66.52A2.48,2.48,0,0,1,69,83.26l.7,8.24Z"/><path class="cls-5" d="M69,83.26A2.48,2.48,0,0,0,66.52,81H61a2.48,2.48,0,0,1,2.48,2.27l.7,8.24H69.7Z"/><rect class="cls-6" x="15.55" y="5.36" width="6.62" height="69.14"/><path class="cls-7" d="M37.72,79.93V77a5.35,5.35,0,0,0-5.36-5.35h-27A5.35,5.35,0,0,0,0,77v3"/><path class="cls-8" d="M22.34,10.71a.86.86,0,0,0,.87-.86V4.35a4.35,4.35,0,0,0-8.7,0v5.5a.86.86,0,0,0,.87.86Z"/><rect class="cls-9" x="57.21" y="26.85" width="6.49" height="46.82"/><path class="cls-4" d="M64.8,28.21V23a4.35,4.35,0,0,0-8.69,0v5.25a1.12,1.12,0,0,0,1.12,1.12h6.44a1.13,1.13,0,0,0,1.13-1.12Z"/><path class="cls-4" d="M75.63,90.27,74.22,73.81A4.26,4.26,0,0,0,70,69.91H67.24a4.27,4.27,0,0,1,4.25,3.9l1.4,16.46a1.13,1.13,0,0,1-1.12,1.23h2.74A1.13,1.13,0,0,0,75.63,90.27Z"/><path class="cls-6" d="M32.36,71.62H29.61A5.35,5.35,0,0,1,35,77v3h2.75V77A5.35,5.35,0,0,0,32.36,71.62Z"/><path class="cls-2" d="M37.72,88.75V79.93H35v8.82a2.75,2.75,0,0,1-2.75,2.75H35A2.75,2.75,0,0,0,37.72,88.75Z"/></g></g></svg>