<svg xmlns="http://www.w3.org/2000/svg" viewBox="0 0 68.11 91.5"><defs><style>.cls-1{fill:#c2e3fc;}.cls-2{fill:#e9efff;}.cls-3{fill:#ff7186;}.cls-4{fill:#ff4155;}.cls-5{fill:#e80054;}.cls-6{fill:#fdd7ad;}.cls-7{fill:#65ddb9;}.cls-8{fill:#46b29d;}.cls-9{fill:#fff;}</style></defs><g id="Capa_2" data-name="Capa 2"><g id="CONTENIDO"><path class="cls-1" d="M13.24,64.09a4.27,4.27,0,0,0,1.7,4.8,20.13,20.13,0,0,0-.79-6.73,51.28,51.28,0,0,1-1.68-8.91,27.21,27.21,0,0,1,0-4.54,17.17,17.17,0,0,0-1-5.6L4.79,35.56A7.36,7.36,0,0,0,6,42.76a1.2,1.2,0,0,1-.18,1.68,4.35,4.35,0,0,0,1.53,7.49,4.11,4.11,0,0,0,1.14.18,1.2,1.2,0,0,1,1.14,1,5.74,5.74,0,0,0,1.26,3,1.19,1.19,0,0,1,.06,1.42,4.35,4.35,0,0,0,2.3,6.5Z"/><path class="cls-2" d="M39.74,67.7a5,5,0,0,1-5.77.59l-.23-.13c-.26.59-1.32,2.89-2,4.78-.11.32-.25.77-.42,1.34a5.6,5.6,0,0,0,2.11-.4,1.2,1.2,0,0,1,1.06.07,7.35,7.35,0,0,0,10.64-3.6,1.19,1.19,0,0,1,1.55-.67,4.35,4.35,0,0,0,5.78-5,4.44,4.44,0,0,0-.4-1.09,1.18,1.18,0,0,1,.36-1.5,5.68,5.68,0,0,0,2-2.58,1.23,1.23,0,0,1,1.22-.75,4.34,4.34,0,0,0,4.54-5.18h0A4.36,4.36,0,0,0,63,47.2Z"/><path class="cls-1" d="M51.82,65.36a4.51,4.51,0,0,1-1.14-.18,4.29,4.29,0,0,1-3.08-4.4L39.74,67.7a5,5,0,0,1-5.77.59l-.23-.13c-.26.59-1.32,2.89-2,4.78-.11.32-.25.77-.42,1.34a5.6,5.6,0,0,0,2.11-.4,1.17,1.17,0,0,1,1.06.08,7.36,7.36,0,0,0,10.64-3.61,1.19,1.19,0,0,1,1.55-.66,4.37,4.37,0,0,0,5.89-4,1.17,1.17,0,0,0-.79-.34Z"/><path class="cls-3" d="M66.81,37.23,35.59,1.77a5.24,5.24,0,0,0-7.38-.47L1.77,24.58A5.24,5.24,0,0,0,1.3,32L11.49,43.53c-.23-.76-.46-1.4-.61-1.82a1.87,1.87,0,0,1,3.39-1.53,36,36,0,0,1,3.13,7.55,1.61,1.61,0,0,0,3.05.24c1.25-3,3-9.2,4.42-21.3a2.18,2.18,0,0,1,4.34.41C29,30.09,27.88,38,27.44,41.2A.71.71,0,0,0,28,42a.72.72,0,0,0,.86-.41c1.75-4,4.91-11.38,6.42-15.25a2,2,0,0,1,3.87,1.3c-.8,2.82-3.61,9.82-6.26,16.3a.63.63,0,0,0,.29.82.64.64,0,0,0,.85-.21,87.07,87.07,0,0,0,7-11.48,1.94,1.94,0,0,1,3.57,1.53,130.12,130.12,0,0,1-6.51,12.83.44.44,0,0,0,.13.6.45.45,0,0,0,.61-.07,91.6,91.6,0,0,0,6.6-8.37,1.92,1.92,0,0,1,3.3,2A86.81,86.81,0,0,1,42.39,52,30.44,30.44,0,0,0,40,55.71c-1.73,3.27-4.41,8.44-6.33,12.71a5.24,5.24,0,0,0,6.19-.53L66.34,44.61a5.23,5.23,0,0,0,.47-7.38Z"/><path class="cls-4" d="M28,42a.72.72,0,0,0,.86-.41l.54-1.26L27.8,38.54c-.14,1-.26,2-.36,2.66A.71.71,0,0,0,28,42Z"/><path class="cls-4" d="M15.14,24.15c-6.06,0-5.53-6.47-5.53-6.47l-7.84,6.9A5.24,5.24,0,0,0,1.3,32L11.49,43.53c-.23-.76-.46-1.4-.61-1.82a1.87,1.87,0,0,1,3.39-1.53,36,36,0,0,1,3.13,7.55,1.61,1.61,0,0,0,3.05.24c1-2.35,2.24-6.55,3.41-13.91Z"/><path class="cls-4" d="M33.15,44.75l.18.06-.52-.59a.64.64,0,0,0,.34.53Z"/><path class="cls-4" d="M47.6,61.11c-5.23,0-4.35-5-4.35-5l-2.06-2.35c-.41.64-.79,1.3-1.15,2-1.73,3.27-4.41,8.44-6.33,12.71a5.24,5.24,0,0,0,6.19-.53Z"/><path class="cls-5" d="M58,41.26,31.5,11.13a1.2,1.2,0,0,1,1.81-1.59L59.84,39.67A1.2,1.2,0,1,1,58,41.26Z"/><path class="cls-5" d="M36.06,60.89,9.54,30.76a1.2,1.2,0,1,1,1.8-1.59L37.87,59.3a1.2,1.2,0,0,1-1.81,1.59Z"/><path class="cls-5" d="M41.56,56,15,25.85a1.2,1.2,0,0,1,.11-1.7,1.19,1.19,0,0,1,1.69.11L43.36,54.39A1.2,1.2,0,1,1,41.56,56Z"/><path class="cls-5" d="M47.05,51.07,20.52,20.94a1.2,1.2,0,1,1,1.81-1.59L48.86,49.48a1.2,1.2,0,0,1-1.81,1.59Z"/><path class="cls-5" d="M52.54,46.17,26,16a1.2,1.2,0,1,1,1.81-1.59L54.35,44.58a1.2,1.2,0,0,1-1.81,1.59Z"/><path class="cls-6" d="M10,84.51a44.07,44.07,0,0,0,17,7c.46-1.78.91-3.51,1.34-5.15l-17-5.6Z"/><path class="cls-7" d="M11.24,81l2.39-6.75a19.62,19.62,0,0,0,.29-12,51.3,51.3,0,0,1-1.69-8.95,28,28,0,0,1,0-4.58c.17-2.34-1-5.63-1.46-6.93a2,2,0,0,1,3.68-1.67,36.5,36.5,0,0,1,3.15,7.59,1.44,1.44,0,0,0,2.74.21c1.34-3.25,3.06-9.47,4.41-21.25a2.34,2.34,0,0,1,4.66.44c-.22,2.83-1.12,9.37-1.77,14.13a.57.57,0,0,0,1.08.3c1.88-4.35,4.94-11.45,6.42-15.25a2.2,2.2,0,0,1,4.17,1.4C38.45,30.58,35.44,38,33,44a.49.49,0,0,0,.85.46,87.23,87.23,0,0,0,7-11.46,2.09,2.09,0,0,1,2.91-.94h0a2.09,2.09,0,0,1,.94,2.6A127.21,127.21,0,0,1,38.25,47.5a.3.3,0,0,0,.48.34,92.1,92.1,0,0,0,6.59-8.34,2.08,2.08,0,0,1,3.57,2.13,88.42,88.42,0,0,1-6.37,10.45,28.4,28.4,0,0,0-2.33,3.7C38,59.92,33.48,68.63,32,73c-.59,1.75-2,7-3.73,13.61Z"/><path class="cls-2" d="M55.42,72a3.35,3.35,0,1,1-4.51,1.48A3.35,3.35,0,0,1,55.42,72Z"/><path class="cls-2" d="M61.24,64.26a2.19,2.19,0,1,1-3-.64,2.18,2.18,0,0,1,3,.64Z"/><path class="cls-8" d="M32,73a63.16,63.16,0,0,1,2.68-6.33C23,73.33,13.92,62.23,13.92,62.23a19.54,19.54,0,0,1-.3,12L11.24,81l17,5.61C30,80.06,31.42,74.76,32,73Z"/><path class="cls-9" d="M31.6,65.53a1,1,0,0,1-.43-.1,1,1,0,0,1-.48-1.34c.17-.35,4.16-8.76,6.25-11.76a1,1,0,0,1,1.66,1.15c-2,2.86-6,11.39-6.08,11.47A1,1,0,0,1,31.6,65.53Z"/></g></g></svg>