<svg xmlns="http://www.w3.org/2000/svg" viewBox="0 0 127.8 127.8"><defs><style>.cls-1{fill:#5fc6ff;}.cls-2{fill:#ffe266;}.cls-3{fill:#ffc82e;}.cls-4{fill:#9d8263;}.cls-5{fill:#ecbd83;}</style></defs><g id="Capa_2" data-name="Capa 2"><g id="CONTENIDO"><path class="cls-1" d="M127.8,63.9a63.57,63.57,0,0,1-14.35,40.34,59.69,59.69,0,0,1-4.12,4.59,63.84,63.84,0,0,1-90.86,0q-2.17-2.19-4.13-4.59A63.92,63.92,0,1,1,127.8,63.9Z"/><path class="cls-2" d="M18.47,108.83c1.14,1.16,2.34,2.28,3.58,3.35h83.7q1.86-1.61,3.58-3.35c1.16-1.17,2.26-2.39,3.32-3.65V9.7A2.7,2.7,0,0,0,110,7H17.85a2.7,2.7,0,0,0-2.7,2.71v95.48C16.21,106.44,17.31,107.66,18.47,108.83Z"/><rect class="cls-3" x="24.56" y="15.81" width="78.69" height="87.55"/><path class="cls-2" d="M103.24,68.16h-37V15.81H61.56V68.16h-37v4.67h37v30.53h4.68V72.83h37Z"/><path class="cls-4" d="M57.28,86.3a2.42,2.42,0,1,1-2.41-2.42,2.41,2.41,0,0,1,2.41,2.42Z"/><path class="cls-4" d="M75.47,86.3a2.42,2.42,0,1,1-2.41-2.42,2.41,2.41,0,0,1,2.41,2.42Z"/><path class="cls-4" d="M57.28,42.94a2.42,2.42,0,1,1-2.41-2.42,2.41,2.41,0,0,1,2.41,2.42Z"/><path class="cls-4" d="M75.47,42.94a2.42,2.42,0,1,1-2.41-2.42,2.41,2.41,0,0,1,2.41,2.42Z"/><path class="cls-5" d="M29.18,117.54v-5.36H22.05A63.23,63.23,0,0,0,29.18,117.54Z"/><path class="cls-5" d="M105.75,112.18H98.62v5.36A63.23,63.23,0,0,0,105.75,112.18Z"/></g></g></svg>