<svg xmlns="http://www.w3.org/2000/svg" xmlns:xlink="http://www.w3.org/1999/xlink" viewBox="0 0 1440 308.62"><defs><style>.cls-1{fill:url(#Degradado_sin_nombre_98);}.cls-2{fill:url(#Degradado_sin_nombre_140);}.cls-3{fill:#45a0b4;opacity:0.4;}.cls-4{fill:#43b593;}.cls-5{fill:#3ea889;}</style><linearGradient id="Degradado_sin_nombre_98" y1="154.31" x2="1440" y2="154.31" gradientTransform="translate(1440 308.62) rotate(180)" gradientUnits="userSpaceOnUse"><stop offset="0.18" stop-color="#45a0b4"/><stop offset="0.58" stop-color="#69b2c2"/><stop offset="1" stop-color="#6dc5ff"/></linearGradient><linearGradient id="Degradado_sin_nombre_140" y1="153.01" x2="1440" y2="153.01" gradientUnits="userSpaceOnUse"><stop offset="0" stop-color="#45a0b4"/><stop offset="0.51" stop-color="#58a9bc"/><stop offset="1" stop-color="#6ab2a6"/></linearGradient></defs><g id="Capa_2" data-name="Capa 2"><g id="FONDO"><rect class="cls-1" width="1440" height="308.62" transform="translate(1440 308.62) rotate(-180)"/><path class="cls-2" d="M0,0V306H1440V0H1006.05c-29.94,29.93-64.94,48.93-109.42,47.14h0q-3.87-.15-7.85-.53h-.13q-2.77-.27-5.63-.64h0a177.27,177.27,0,0,1-19.42-3.68c-16.45-4.06-30.85-5.71-43.65-5.43a105.63,105.63,0,0,0-37,7.18c-59.74,23.48-81.3,97.32-170.51,114.58C506.42,179.14,404.57,148.4,319.68,0Z"/><path class="cls-3" d="M1216.88,173.7c-30.85-13.19-86.33,2.55-144.09-24.34C915,75.89,961.77,233.81,787.43,306H1440V60C1308.44,39.66,1221.14,166.27,1216.88,173.7Z"/><path class="cls-4" d="M1253.23,107.07a78.61,78.61,0,0,0,17.51,32.66,98.3,98.3,0,0,0,13,12.19h0q2.54,2,5.15,3.81c15.87,11,33.05,17.18,43.81,20.25,3.09.88,5.65,1.51,7.5,1.92l.91.22c2.07.5,4.1,1.14,6.11,1.83,32.53,11.14,71.6,4.78,92.8-7.86V137c-8-.2-17,1.11-22.18-6.8-3.77-5.8,2-10.86,11.22-16.37,3.31-2,7.07-4,11-6.23V62.91c-4.62.12-8.83.33-11.91.34a21.13,21.13,0,0,1-12.3-4.4c-9.45-7.29-12.6-22.93,19.61-42.06,1.57-.93,3.1-1.87,4.6-2.8V0H1255.25c16.28,42.5,33.11,41.34,57.92,76.91C1338.83,113.69,1238.17,48.59,1253.23,107.07Z"/><path class="cls-5" d="M1328,306h10.7q-.45-10.75-.68-21.89-.13-6.34-.19-12.81c-.23-29.18.74-60.27,3.3-93.2,2.64-33.92,7-69.79,13.35-107.55q5.77-34.26,13.93-70.58h-6.51c-5.48,22.57-10.79,47.3-15.51,73.92h0c-5.58,31.5-10.35,65.65-13.66,102.07A1187.79,1187.79,0,0,0,1328,306Z"/><path class="cls-4" d="M1272.64,271.15a47.57,47.57,0,0,0-4.68,2.35c-9.25,5.4-48.25,25.7-80,5.3-36.32-23.32,48.11-38.32,16.78-45.08s-39.12,2.9-70.82-13.59-3.81-30.45,9.61-30.85,36.66-5.59,14.59-14.29-43.11-15-50.52-30.5,6.53-22.52,27.61-12.53,34.74,4.44,27.49-8.1-28.21-27-29.68-50.28,15.32-29.75,27.63-8.81,29.19,72.47,41.32,65.15,16.21-51.88,29.93-50,18.26,26.73,7.7,62.59,11.52,34.72,18.75,27.93,24.5-26.78,30.52-14.79c9.22,18.35-16.08,51.74-3.34,54.93s16.27-19.17,29.64-7.68C1328.17,214.1,1306,256.24,1272.64,271.15Z"/><path class="cls-5" d="M1144.57,64.69c.5,1.55,22.48,69,79,155.64,11.68,17.91,24.85,36.64,39.61,55.78q11.41,14.82,24.15,29.92h8.75q-13.66-15.43-27.51-32.87c-14-17.69-28.08-37-42-57.94C1198.12,172.49,1170.27,122.66,1144.57,64.69Z"/><path class="cls-4" d="M1439.48,230.79l.52,0v-46.2c-8,9.28-16,17.4-19.61,13.79-6.09-6.05-1.56-32.11-10-33.13s-15,12.46-14.36,34.57-12.29,18.06-15.54,13.07-10.42-19-15.88-13.12c-8.36,9.07,1.5,32-6.59,31.88s-6.7-13.44-16.47-8.93c-9.52,4.4-2.88,31.86,14.67,45.48.84.66,1.66,1.33,2.42,2.06,4.68,4.5,24.75,22.07,46.88,15.29,25.3-7.75-22.69-29.25-3-28.31,17.41.83,21.9,6.14,37.47,4.25V239C1433.44,236.14,1428.35,232,1439.48,230.79Z"/><path class="cls-5" d="M1332.69,274.3a43.14,43.14,0,0,1,2.16,12l3.13-2.17a593.18,593.18,0,0,0,102-90.5v-7.45c-39.4,43.22-76.29,69.76-102.21,85.14C1336,272.38,1334.34,273.36,1332.69,274.3Z"/><path class="cls-4" d="M932.89,306c-5.59-4.33-10.28-9.19-12.89-14.82a22.54,22.54,0,0,1-1.33-3.54c-5.22-18,31.45-14,45.28-13.93s37.54-19.82-7.31-46.46-63.78-56.39-51.52-71.4c10.36-12.7,45.15,15.16,67.36,21.62h0a31,31,0,0,0,6.37,1.24h0a15.53,15.53,0,0,0,4.31-.22c19.38-4.06-12.26-72.89-19.52-106s16-42.59,36.65-17.32,12.84,60,17.32,79.75,23.74,12.39,35.83-17.91,33-36.44,40.15-13.48-8.42,49.44-22.76,79.37,14.38,13.1,28.49.71c12.11-10.62,44.57-21.16,43,5.76a62.31,62.31,0,0,1-3.86,16.67c-1.82,5.08-3.63,9.59-5.47,13.63-15.13,33.38-31.22,34.95-54.11,67.76-23.67,33.9,60.07-18.8,61.46,18.62H932.89Z"/><path class="cls-5" d="M1041.56,306h7.76c-24-150.86-68.38-246.91-69.32-248.94a1473.56,1473.56,0,0,1,44.54,157.33h0c.71,3.14,1.39,6.29,2.07,9.42Q1035.76,266.38,1041.56,306Z"/><path class="cls-4" d="M1225.12,287.48c-2.74,5.77-5.61,12.2-8.53,18.55h34.91c4-6.39,7-13.6,7.56-21.95a41.78,41.78,0,0,0,0-5.94h0c-1.53-18.32-16.41-21.91-27.6-2.87C1229.43,278.66,1227.31,282.86,1225.12,287.48Z"/><path class="cls-4" d="M1147.74,306h25.78c-.94-2.4-1.91-4.66-2.94-6.67-2.9-5.74-6.2-9.52-10.41-8.94C1154,291.27,1149.62,296.85,1147.74,306Z"/><path class="cls-5" d="M1243.52,284q-5.08,11.24-10.29,22h2.36c4-9.48,6.93-17,8.88-22.32s2.91-8.22,3-8.53Q1245.5,279.62,1243.52,284Z"/><path class="cls-4" d="M938.86,306c2.65-8.14,5.81-17.84,2.38-24.68-4.13-8.22-15.57,4.32-21.24,9.86-.32.32-.63.62-.91.88-5.25,4.92-21.27,5.76-13.61-20.27s4.38-44-5.58-45.43-12.91,31-21.72,36.28-21.06-32.08-30-47.27-21.14-10.53-20.06,6.39,16.29,27.39,21.55,36.49-4.67,13.13-20,5.88-25.4-2.18-20,9.09,20.66,15.83,36.67,22.14-.85,10.08-10.59,10.37a17.66,17.66,0,0,0-2.61.27H938.86Z"/><path class="cls-5" d="M836.54,215.34c.38,1.17,12.74,39,43.45,90.69h4.14A750.87,750.87,0,0,1,836.54,215.34Z"/><path class="cls-4" d="M947.91,141.65a21.1,21.1,0,0,0-2.18,1.09c-4.31,2.52-22.47,12-37.27,2.47-16.91-10.86,22.4-17.84,7.81-21s-18.21,1.35-33-6.32-1.77-14.18,4.48-14.37,17.06-2.6,6.79-6.65-20.07-7-23.52-14.2,3-10.48,12.85-5.84,16.18,2.07,12.8-3.76-13.13-12.56-13.82-23.41,7.14-13.86,12.87-4.11S909.34,79.31,915,75.89s7.54-24.15,13.93-23.27,8.5,12.44,3.58,29.14,5.37,16.17,8.73,13,11.41-12.47,14.21-6.89c4.3,8.54-7.48,24.09-1.55,25.58s7.57-8.93,13.8-3.58C973.76,115.09,963.43,134.71,947.91,141.65Z"/><path class="cls-5" d="M1031.22,218.39c-32.12-18.3-95.45-65.74-143-172.88,0,0,34.22,106.7,141.56,180.58A27.9,27.9,0,0,1,1031.22,218.39Z"/></g></g></svg>